<?xml version="1.0" encoding="UTF-8" standalone="no"?>
<!-- Created with Inkscape (http://www.inkscape.org/) -->

<svg
   width="188.36353mm"
   height="42.718048mm"
   viewBox="0 0 188.36353 42.718048"
   version="1.1"
   id="svg1"
   xml:space="preserve"
   xmlns:inkscape="http://www.inkscape.org/namespaces/inkscape"
   xmlns:sodipodi="http://sodipodi.sourceforge.net/DTD/sodipodi-0.dtd"
   xmlns="http://www.w3.org/2000/svg"
   xmlns:svg="http://www.w3.org/2000/svg"><sodipodi:namedview
     id="namedview1"
     pagecolor="#ffffff"
     bordercolor="#999999"
     borderopacity="1"
     inkscape:showpageshadow="2"
     inkscape:pageopacity="0"
     inkscape:pagecheckerboard="0"
     inkscape:deskcolor="#d1d1d1"
     inkscape:document-units="mm" /><defs
     id="defs1"><inkscape:path-effect
       effect="fillet_chamfer"
       id="path-effect17"
       is_visible="true"
       lpeversion="1"
       nodesatellites_param="F,0,0,1,0,0,0,1 @ F,0,0,1,0,1.4021398,0,1 @ F,0,0,1,0,0,0,1 @ F,0,0,1,0,0,0,1 @ F,0,0,1,0,0.88444019,0,1 @ F,0,0,1,0,0,0,1 @ F,0,0,1,0,0,0,1 @ F,0,0,1,0,0,0,1 @ F,0,0,1,0,0,0,1 @ F,0,0,1,0,0,0,1 @ F,0,0,1,0,0,0,1 @ F,0,0,1,0,2.345903,0,1 @ F,0,0,1,0,0.047325282,0,1 @ F,0,0,1,0,0,0,1"
       radius="0"
       unit="px"
       method="auto"
       mode="F"
       chamfer_steps="1"
       flexible="false"
       use_knot_distance="true"
       apply_no_radius="true"
       apply_with_radius="true"
       only_selected="false"
       hide_knots="false" /><inkscape:path-effect
       effect="fillet_chamfer"
       id="path-effect15"
       is_visible="true"
       lpeversion="1"
       nodesatellites_param="F,0,0,1,0,0,0,1 @ F,0,0,1,0,1.4021398,0,1 @ F,0,0,1,0,0,0,1 @ F,0,0,1,0,0,0,1 @ F,0,0,1,0,0.88444019,0,1 @ F,0,0,1,0,0,0,1 @ F,0,0,1,0,0,0,1 @ F,0,0,1,0,0,0,1 @ F,0,0,1,0,0,0,1 @ F,0,0,1,0,0,0,1 @ F,0,0,1,0,0,0,1 @ F,0,0,1,0,2.345903,0,1 @ F,0,0,1,0,0.047325282,0,1 @ F,0,0,1,0,0,0,1"
       radius="0"
       unit="px"
       method="auto"
       mode="F"
       chamfer_steps="1"
       flexible="false"
       use_knot_distance="true"
       apply_no_radius="true"
       apply_with_radius="true"
       only_selected="false"
       hide_knots="false" /></defs><g
     inkscape:label="Layer 1"
     inkscape:groupmode="layer"
     id="layer1"
     transform="translate(243.1747,-148.095)"><g
       id="g17"
       transform="translate(0,2.2268638)"><path
         d="m 122.36617,128.71721 c -0.79998,0.0185 -1.60839,0.133 -2.41194,0.34318 -0.7487,0.19583 -1.77323,0.8837 -2.31878,1.43328 l -6.68925,6.73878 -8.53333,8.59741 -7.482899,7.53871 c -0.34411,0.34667 -0.757705,1.00128 -0.873003,1.47575 -0.708991,2.91761 0.203289,5.60714 2.527317,7.31736 1.138199,0.83138 2.567001,1.39444 4.185795,1.64951 l 4.0628,0.0238 16.01607,0.0946 c 4.74515,0.028 8.5913,-3.79647 8.6155,-8.5416 0.01,-1.86336 0.0362,-3.91605 0.0506,-5.85752 0.0382,-5.13103 0.0862,-10.17064 0.14821,-15.26096 0.0158,-1.29551 -0.65863,-3.16279 -1.72081,-3.89938 -0.59766,-0.41447 -1.23772,-0.75784 -1.9118,-1.02425 -0.0243,-0.01 -0.0639,-0.0248 -0.0884,-0.0339 -1.13996,-0.42502 -2.34815,-0.62304 -3.57616,-0.59469 z"
         style="font-variation-settings:'wght' 500;fill:#ffffff;fill-opacity:1;stroke-width:0.446382;stroke-linecap:square;stroke-linejoin:bevel;paint-order:markers fill stroke"
         id="path13"
         inkscape:path-effect="#path-effect15"
         inkscape:original-d="m 122.36617,128.71721 c -1.24392,0.0287 -2.50822,0.28972 -3.74292,0.78135 l -7.67705,7.73389 -8.53333,8.59741 -8.105965,8.16642 c -1.121448,3.2389 -0.270314,6.29059 2.27738,8.1654 1.138199,0.83138 2.567001,1.39444 4.185795,1.64951 l 4.0628,0.0238 16.01607,0.0946 c 4.74515,0.028 8.5913,-3.79647 8.6155,-8.5416 0.01,-1.86336 0.0362,-3.91605 0.0506,-5.85752 0.0441,-5.91781 0.10109,-11.71402 0.17777,-17.60668 -1.03799,-1.16434 -2.29866,-2.04709 -3.70623,-2.59519 -1.15294,-0.43649 -2.37653,-0.64005 -3.62046,-0.61133 z"
         transform="translate(-336.9969,24.656441)"
         inkscape:export-filename="skyspace logomark color.svg"
         inkscape:export-xdpi="96"
         inkscape:export-ydpi="96" /><path
         d="m 122.36617,128.71721 c -0.79998,0.0185 -1.60839,0.133 -2.41194,0.34318 -0.7487,0.19583 -1.77323,0.8837 -2.31878,1.43328 l -6.68925,6.73878 -8.53333,8.59741 -7.482899,7.53871 c -0.34411,0.34667 -0.757705,1.00128 -0.873003,1.47575 -0.708991,2.91761 0.203289,5.60714 2.527317,7.31736 1.138199,0.83138 2.567001,1.39444 4.185795,1.64951 l 4.0628,0.0238 16.01607,0.0946 c 4.74515,0.028 8.5913,-3.79647 8.6155,-8.5416 0.01,-1.86336 0.0362,-3.91605 0.0506,-5.85752 0.0382,-5.13103 0.0862,-10.17064 0.14821,-15.26096 0.0158,-1.29551 -0.65863,-3.16279 -1.72081,-3.89938 -0.59766,-0.41447 -1.23772,-0.75784 -1.9118,-1.02425 -0.0243,-0.01 -0.0639,-0.0248 -0.0884,-0.0339 -1.13996,-0.42502 -2.34815,-0.62304 -3.57616,-0.59469 z"
         style="font-variation-settings:'wght' 500;opacity:0.803;mix-blend-mode:multiply;fill:#ececec;fill-opacity:1;stroke-width:0.446382;stroke-linecap:square;stroke-linejoin:bevel;paint-order:markers fill stroke"
         id="path14"
         inkscape:path-effect="#path-effect17"
         inkscape:original-d="m 122.36617,128.71721 c -1.24392,0.0287 -2.50822,0.28972 -3.74292,0.78135 l -7.67705,7.73389 -8.53333,8.59741 -8.105965,8.16642 c -1.121448,3.2389 -0.270314,6.29059 2.27738,8.1654 1.138199,0.83138 2.567001,1.39444 4.185795,1.64951 l 4.0628,0.0238 16.01607,0.0946 c 4.74515,0.028 8.5913,-3.79647 8.6155,-8.5416 0.01,-1.86336 0.0362,-3.91605 0.0506,-5.85752 0.0441,-5.91781 0.10109,-11.71402 0.17777,-17.60668 -1.03799,-1.16434 -2.29866,-2.04709 -3.70623,-2.59519 -1.15294,-0.43649 -2.37653,-0.64005 -3.62046,-0.61133 z"
         transform="rotate(180,-52.67699,154.89894)" /></g><text
       xml:space="preserve"
       style="font-style:normal;font-variant:normal;font-weight:normal;font-stretch:normal;font-size:30.2934px;font-family:Arial;-inkscape-font-specification:'Arial, @wght=500';font-variant-ligatures:normal;font-variant-caps:normal;font-variant-numeric:normal;font-variant-east-asian:normal;font-variation-settings:'wght' 500;text-align:end;letter-spacing:0.036577px;word-spacing:-0.0545749px;text-anchor:end;opacity:1;fill:#ffffff;fill-opacity:1;stroke-width:0.109717;stroke-linecap:square;stroke-linejoin:bevel;paint-order:markers fill stroke"
       x="-53.553886"
       y="178.35194"
       id="text17"
       inkscape:export-filename="skyspace full logo color.svg"
       inkscape:export-xdpi="96"
       inkscape:export-ydpi="96"><tspan
         sodipodi:role="line"
         id="tspan17"
         style="font-style:normal;font-variant:normal;font-weight:normal;font-stretch:normal;font-size:30.2934px;font-family:Arial;-inkscape-font-specification:'Arial, @wght=500';font-variant-ligatures:normal;font-variant-caps:normal;font-variant-numeric:normal;font-variant-east-asian:normal;font-variation-settings:'wght' 500;fill:#ffffff;stroke-width:0.109717"
         x="-53.517307"
         y="178.35194">SkySpace</tspan></text></g></svg>
