<?xml version="1.0" encoding="utf-8"?>
<svg width="43.998524mm" height="42.71804mm" viewBox="0 0 43.998524 42.71804" version="1.1" id="svg1" xmlns="http://www.w3.org/2000/svg">
  <g id="layer1" transform="translate(124.82904,-38.089061)">
    <path d="m 122.36617,128.71721 c -0.79998,0.0185 -1.60839,0.133 -2.41194,0.34318 -0.7487,0.19583 -1.77323,0.8837 -2.31878,1.43328 l -6.68925,6.73878 -8.53333,8.59741 -7.482899,7.53871 c -0.34411,0.34667 -0.757705,1.00128 -0.873003,1.47575 -0.708991,2.91761 0.203289,5.60714 2.527317,7.31736 1.138199,0.83138 2.567001,1.39444 4.185795,1.64951 l 4.0628,0.0238 16.01607,0.0946 c 4.74515,0.028 8.5913,-3.79647 8.6155,-8.5416 0.01,-1.86336 0.0362,-3.91605 0.0506,-5.85752 0.0382,-5.13103 0.0862,-10.17064 0.14821,-15.26096 0.0158,-1.29551 -0.65863,-3.16279 -1.72081,-3.89938 -0.59766,-0.41447 -1.23772,-0.75784 -1.9118,-1.02425 -0.0243,-0.01 -0.0639,-0.0248 -0.0884,-0.0339 -1.13996,-0.42502 -2.34815,-0.62304 -3.57616,-0.59469 z" style="font-variation-settings: &quot;wght&quot; 500; opacity: 1; fill-opacity: 1; stroke-width: 0.446382; stroke-linecap: square; stroke-linejoin: bevel; paint-order: markers; fill: rgb(58, 175, 169);" id="path9" transform="translate(-218.65124,-83.122642)"/>
    <path d="m 122.36617,128.71721 c -0.79998,0.0185 -1.60839,0.133 -2.41194,0.34318 -0.7487,0.19583 -1.77323,0.8837 -2.31878,1.43328 l -6.68925,6.73878 -8.53333,8.59741 -7.482899,7.53871 c -0.34411,0.34667 -0.757705,1.00128 -0.873003,1.47575 -0.708991,2.91761 0.203289,5.60714 2.527317,7.31736 1.138199,0.83138 2.567001,1.39444 4.185795,1.64951 l 4.0628,0.0238 16.01607,0.0946 c 4.74515,0.028 8.5913,-3.79647 8.6155,-8.5416 0.01,-1.86336 0.0362,-3.91605 0.0506,-5.85752 0.0382,-5.13103 0.0862,-10.17064 0.14821,-15.26096 0.0158,-1.29551 -0.65863,-3.16279 -1.72081,-3.89938 -0.59766,-0.41447 -1.23772,-0.75784 -1.9118,-1.02425 -0.0243,-0.01 -0.0639,-0.0248 -0.0884,-0.0339 -1.13996,-0.42502 -2.34815,-0.62304 -3.57616,-0.59469 z" style="font-variation-settings: &quot;wght&quot; 500; mix-blend-mode: multiply; fill-opacity: 1; stroke-width: 0.446382; stroke-linecap: square; stroke-linejoin: bevel; paint-order: markers; fill: rgb(58, 175, 169); opacity: 0.5;" id="path10" transform="rotate(180,6.4958397,101.0094)"/>
  </g>
</svg>